<svg xmlns="http://www.w3.org/2000/svg" viewBox="0 0 300.02 590.81"><defs><style>.cls-1{fill:none;stroke:#000;stroke-miterlimit:10;stroke-width:12px;}</style></defs><g id="Слой_2" data-name="Слой 2"><g id="Слой_1-2" data-name="Слой 1"><path class="cls-1" d="M142.51,556.15S177,377.65,173,388.65c4-15,3-68.58-19-110-19.42-36.56-10-71.41-11.5-90.71S146,98.65,146,98.65l8-97s-44,154-58,177-77.5,130.5-87.5,196.5,13,179,15,202,119-21,119-21L244.87,583.8S308.41,470.92,291,407.65c-22-80-23-79-37.5-113.5-15.22-36.21-51.5-97.5-63.5-127.5s-34-142-36-165"/></g></g></svg>